<?xml version="1.0" encoding="utf-8"?>
<!-- Generator: Adobe Illustrator 19.1.1, SVG Export Plug-In . SVG Version: 6.00 Build 0)  -->
<svg version="1.1" id="Layer_1" xmlns="http://www.w3.org/2000/svg" xmlns:xlink="http://www.w3.org/1999/xlink" x="0px" y="0px"
	 viewBox="0 0 560 560" enable-background="new 0 0 560 560" xml:space="preserve">
<g>
	<path fill="none" stroke="#FFFFFF" stroke-width="15.0818" stroke-miterlimit="10" d="M279.3,397.8c0-34.5,13.6-173.8-34.5-193.9
		S87.5,186,60.3,114.2"/>
	<path fill="none" stroke="#FFFFFF" stroke-width="15.0818" stroke-miterlimit="10" d="M244.8,203.9
		C196.7,183.8,77.9,177.1,38,242.7"/>
	<path fill="none" stroke="#FFFFFF" stroke-width="15.0818" stroke-miterlimit="10" d="M244.8,203.9
		c-48.1-20.1-96.2-15.8-103.4,22.3"/>
	<circle fill="none" stroke="#FFFFFF" stroke-width="15.0818" stroke-miterlimit="10" cx="136.4" cy="235.5" r="15.8"/>
	<circle fill="none" stroke="#FFFFFF" stroke-width="15.0818" stroke-miterlimit="10" cx="30.8" cy="252.8" r="15.8"/>
	<circle fill="none" stroke="#FFFFFF" stroke-width="15.0818" stroke-miterlimit="10" cx="30.8" cy="309.5" r="15.8"/>
	<circle fill="none" stroke="#FFFFFF" stroke-width="15.0818" stroke-miterlimit="10" cx="58.1" cy="104.1" r="15.8"/>
	<path fill="none" stroke="#FFFFFF" stroke-width="15.0818" stroke-miterlimit="10" d="M279.3,397.8c0-34.5-13.6-173.8,34.5-193.9
		s157.3-18,184.6-89.8"/>
	<path fill="none" stroke="#FFFFFF" stroke-width="15.0818" stroke-miterlimit="10" d="M313.8,203.9
		c48.1-20.1,166.9-26.9,206.8,38.8"/>
	<path fill="none" stroke="#FFFFFF" stroke-width="15.0818" stroke-miterlimit="10" d="M313.8,203.9c48.1-20.1,96.2-15.8,103.4,22.3
		"/>
	<circle fill="none" stroke="#FFFFFF" stroke-width="15.0818" stroke-miterlimit="10" cx="422.2" cy="235.5" r="15.8"/>
	<circle fill="none" stroke="#FFFFFF" stroke-width="15.0818" stroke-miterlimit="10" cx="527.8" cy="252.8" r="15.8"/>
	<circle fill="none" stroke="#FFFFFF" stroke-width="15.0818" stroke-miterlimit="10" cx="500.5" cy="104.1" r="15.8"/>
	<path fill="none" stroke="#FFFFFF" stroke-width="15.0818" stroke-miterlimit="10" d="M279.3,162.3c0,34.5-13.6,173.8,34.5,193.9
		s157.3,18,184.6,89.8"/>
	<path fill="none" stroke="#FFFFFF" stroke-width="15.0818" stroke-miterlimit="10" d="M313.8,356.2
		c48.1,20.1,166.9,26.9,206.8-38.8"/>
	<path fill="none" stroke="#FFFFFF" stroke-width="15.0818" stroke-miterlimit="10" d="M313.8,356.2c48.1,20.1,96.2,15.8,103.4-22.3
		"/>
	<circle fill="none" stroke="#FFFFFF" stroke-width="15.0818" stroke-miterlimit="10" cx="422.2" cy="324.6" r="15.8"/>
	<circle fill="none" stroke="#FFFFFF" stroke-width="15.0818" stroke-miterlimit="10" cx="527.8" cy="307.4" r="15.8"/>
	<circle fill="none" stroke="#FFFFFF" stroke-width="15.0818" stroke-miterlimit="10" cx="500.5" cy="456" r="15.8"/>
	<path fill="none" stroke="#FFFFFF" stroke-width="15.0818" stroke-miterlimit="10" d="M279.3,162.3c0,34.5,13.6,173.8-34.5,193.9
		S87.5,374.1,60.3,446"/>
	<path fill="none" stroke="#FFFFFF" stroke-width="15.0818" stroke-miterlimit="10" d="M244.8,356.2
		C196.7,376.3,77.9,383.1,38,317.4"/>
	<path fill="none" stroke="#FFFFFF" stroke-width="15.0818" stroke-miterlimit="10" d="M244.8,356.2
		c-48.1,20.1-96.2,15.8-103.4-22.3"/>
	<circle fill="none" stroke="#FFFFFF" stroke-width="15.0818" stroke-miterlimit="10" cx="136.4" cy="324.6" r="15.8"/>
	<circle fill="none" stroke="#FFFFFF" stroke-width="15.0818" stroke-miterlimit="10" cx="58.1" cy="456" r="15.8"/>
</g>
<g>
	<path fill="none" stroke="#FFFFFF" stroke-width="15.0818" stroke-miterlimit="10" d="M397.1,280.1c-34.5,0-173.8-13.6-193.9,34.5
		s-18,157.3-89.8,184.6"/>
	<path fill="none" stroke="#FFFFFF" stroke-width="15.0818" stroke-miterlimit="10" d="M203.2,314.5
		c-20.1,48.1-26.9,166.9,38.8,206.8"/>
	<path fill="none" stroke="#FFFFFF" stroke-width="15.0818" stroke-miterlimit="10" d="M203.2,314.5
		c-20.1,48.1-15.8,96.2,22.3,103.4"/>
	<circle fill="none" stroke="#FFFFFF" stroke-width="15.0818" stroke-miterlimit="10" cx="234.8" cy="423" r="15.8"/>
	<circle fill="none" stroke="#FFFFFF" stroke-width="15.0818" stroke-miterlimit="10" cx="252" cy="528.6" r="15.8"/>
	<circle fill="none" stroke="#FFFFFF" stroke-width="15.0818" stroke-miterlimit="10" cx="308.7" cy="528.6" r="15.8"/>
	<circle fill="none" stroke="#FFFFFF" stroke-width="15.0818" stroke-miterlimit="10" cx="103.3" cy="501.3" r="15.8"/>
	<path fill="none" stroke="#FFFFFF" stroke-width="15.0818" stroke-miterlimit="10" d="M397.1,280.1c-34.5,0-173.8,13.6-193.9-34.5
		S185.2,88.3,113.4,61"/>
	<path fill="none" stroke="#FFFFFF" stroke-width="15.0818" stroke-miterlimit="10" d="M203.2,245.6
		C183.1,197.5,176.3,78.6,242,38.8"/>
	<path fill="none" stroke="#FFFFFF" stroke-width="15.0818" stroke-miterlimit="10" d="M203.2,245.6
		c-20.1-48.1-15.8-96.2,22.3-103.4"/>
	<circle fill="none" stroke="#FFFFFF" stroke-width="15.0818" stroke-miterlimit="10" cx="234.8" cy="137.1" r="15.8"/>
	<circle fill="none" stroke="#FFFFFF" stroke-width="15.0818" stroke-miterlimit="10" cx="252" cy="31.6" r="15.8"/>
	<circle fill="none" stroke="#FFFFFF" stroke-width="15.0818" stroke-miterlimit="10" cx="103.3" cy="58.9" r="15.8"/>
	<path fill="none" stroke="#FFFFFF" stroke-width="15.0818" stroke-miterlimit="10" d="M161.5,280.1c34.5,0,173.8,13.6,193.9-34.5
		s18-157.3,89.8-184.6"/>
	<path fill="none" stroke="#FFFFFF" stroke-width="15.0818" stroke-miterlimit="10" d="M355.4,245.6
		c20.1-48.1,26.9-166.9-38.8-206.8"/>
	<path fill="none" stroke="#FFFFFF" stroke-width="15.0818" stroke-miterlimit="10" d="M355.4,245.6c20.1-48.1,15.8-96.2-22.3-103.4
		"/>
	<circle fill="none" stroke="#FFFFFF" stroke-width="15.0818" stroke-miterlimit="10" cx="323.8" cy="137.1" r="15.8"/>
	<circle fill="none" stroke="#FFFFFF" stroke-width="15.0818" stroke-miterlimit="10" cx="306.6" cy="31.6" r="15.8"/>
	<circle fill="none" stroke="#FFFFFF" stroke-width="15.0818" stroke-miterlimit="10" cx="455.3" cy="58.9" r="15.8"/>
	<path fill="none" stroke="#FFFFFF" stroke-width="15.0818" stroke-miterlimit="10" d="M161.5,280.1c34.5,0,173.8-13.6,193.9,34.5
		s18,157.3,89.8,184.6"/>
	<path fill="none" stroke="#FFFFFF" stroke-width="15.0818" stroke-miterlimit="10" d="M355.4,314.5
		c20.1,48.1,26.9,166.9-38.8,206.8"/>
	<path fill="none" stroke="#FFFFFF" stroke-width="15.0818" stroke-miterlimit="10" d="M355.4,314.5c20.1,48.1,15.8,96.2-22.3,103.4
		"/>
	<circle fill="none" stroke="#FFFFFF" stroke-width="15.0818" stroke-miterlimit="10" cx="323.8" cy="423" r="15.8"/>
	<circle fill="none" stroke="#FFFFFF" stroke-width="15.0818" stroke-miterlimit="10" cx="455.3" cy="501.3" r="15.8"/>
</g>
<circle fill="none" stroke="#FFFFFF" stroke-width="15.0818" stroke-miterlimit="10" cx="279.3" cy="280.1" r="215.5"/>
<g>
</g>
<g>
</g>
<g>
</g>
<g>
</g>
<g>
</g>
<g>
</g>
<g>
</g>
<g>
</g>
<g>
</g>
<g>
</g>
<g>
</g>
<g>
</g>
<g>
</g>
<g>
</g>
<g>
</g>
</svg>
